<?xml version="1.0" standalone="no"?>
<!DOCTYPE svg PUBLIC "-//W3C//DTD SVG 20010904//EN"
 "http://www.w3.org/TR/2001/REC-SVG-20010904/DTD/svg10.dtd">
<svg version="1.0" xmlns="http://www.w3.org/2000/svg"
 width="474.000000pt" height="474.000000pt" viewBox="0 0 474.000000 474.000000"
 preserveAspectRatio="xMidYMid meet">
<metadata>
Created by potrace 1.11, written by Peter Selinger 2001-2013
</metadata>
<g transform="translate(0.000000,474.000000) scale(0.100000,-0.100000)"
fill="#000000" stroke="none">
<path d="M2229 4726 c-2 -2 -42 -7 -88 -10 -85 -6 -258 -33 -274 -43 -4 -3
-18 -6 -30 -8 -12 -2 -33 -6 -47 -9 -14 -3 -37 -8 -53 -12 -15 -3 -25 -10 -22
-15 4 -5 -1 -6 -9 -3 -9 3 -24 3 -33 -2 -23 -9 -29 -11 -49 -13 -9 0 -12 -6
-8 -13 4 -7 3 -8 -4 -4 -25 15 -427 -171 -459 -212 -8 -12 -12 -13 -13 -4 0
10 -5 8 -18 -4 -9 -10 -17 -21 -17 -25 0 -4 -4 -11 -9 -16 -5 -5 -6 -3 -2 5
10 18 -7 15 -30 -5 -10 -10 -31 -24 -46 -32 -16 -8 -28 -18 -28 -23 0 -4 -7
-8 -16 -8 -10 0 -14 -6 -11 -14 4 -9 1 -13 -7 -10 -17 6 -68 -35 -60 -48 4 -6
2 -8 -3 -5 -12 8 -89 -51 -86 -64 2 -5 -3 -8 -10 -6 -6 1 -11 -4 -9 -11 1 -8
-2 -11 -7 -8 -13 8 -223 -213 -215 -226 4 -6 2 -8 -4 -4 -12 7 -44 -33 -36
-45 2 -4 -1 -11 -7 -15 -8 -5 -10 -2 -4 7 4 8 -4 1 -19 -16 -14 -16 -23 -36
-21 -43 3 -7 1 -11 -4 -8 -12 8 -43 -42 -35 -56 4 -7 3 -8 -4 -4 -14 8 -54
-53 -45 -67 3 -6 2 -7 -4 -4 -5 3 -19 -10 -31 -31 -56 -98 -80 -150 -74 -157
4 -5 3 -6 -3 -3 -15 8 -38 -19 -24 -28 7 -4 8 -9 1 -13 -9 -6 -61 -102 -63
-118 -2 -11 -18 -51 -40 -101 -11 -24 -17 -48 -14 -53 4 -5 1 -9 -6 -9 -6 0
-9 -8 -6 -20 3 -11 1 -18 -4 -14 -8 5 -14 -26 -10 -50 1 -5 -3 -12 -8 -16 -6
-3 -12 -19 -15 -36 -2 -16 -6 -36 -10 -45 -4 -9 -8 -27 -10 -41 -1 -13 -5 -29
-9 -35 -4 -6 -8 -33 -11 -61 -2 -27 -6 -54 -9 -59 -28 -45 -28 -700 -1 -745 3
-5 8 -30 10 -56 3 -26 9 -49 14 -50 6 -2 8 -8 5 -12 -5 -8 4 -54 21 -115 3
-11 8 -32 11 -47 3 -15 9 -25 14 -22 5 3 6 -2 3 -10 -3 -8 -2 -21 2 -28 9 -14
11 -19 13 -44 0 -9 6 -12 13 -8 7 4 8 3 4 -4 -4 -6 1 -28 10 -49 9 -21 16 -44
15 -51 -1 -6 2 -12 7 -12 5 0 12 -13 15 -29 3 -16 12 -35 19 -42 7 -8 15 -25
17 -39 1 -14 6 -27 11 -30 4 -3 10 -15 14 -28 4 -12 12 -19 18 -16 7 4 8 2 4
-5 -7 -11 30 -82 46 -89 5 -2 6 -7 3 -12 -3 -5 2 -15 11 -24 8 -9 16 -25 17
-35 0 -11 4 -18 8 -16 3 3 12 -7 19 -20 7 -14 17 -25 22 -25 5 0 7 -4 3 -9 -3
-6 3 -14 12 -20 10 -6 14 -11 10 -11 -8 0 33 -59 60 -88 7 -7 13 -16 13 -20 1
-15 58 -71 65 -64 5 4 5 2 2 -4 -9 -15 32 -66 45 -58 6 4 8 3 5 -3 -4 -6 33
-49 81 -96 126 -124 142 -138 153 -131 5 3 8 0 7 -8 -2 -7 3 -12 10 -10 8 1
11 -2 7 -7 -6 -10 33 -37 47 -33 5 1 7 -1 5 -6 -1 -4 0 -7 3 -7 3 -1 18 -13
33 -29 16 -16 34 -25 43 -22 8 3 13 2 10 -2 -7 -12 83 -77 147 -104 15 -7 27
-19 27 -27 0 -8 3 -12 6 -8 4 3 24 -3 45 -14 22 -11 39 -16 39 -13 0 4 9 -3
19 -15 11 -12 21 -21 23 -20 7 5 48 -13 48 -21 0 -5 9 -7 20 -5 11 2 20 0 20
-4 0 -4 33 -20 73 -35 39 -15 85 -33 100 -41 16 -9 33 -13 38 -9 5 3 9 0 9 -6
0 -7 6 -10 14 -7 7 3 19 0 25 -6 6 -6 11 -7 11 -3 0 5 6 4 13 -2 7 -6 24 -13
37 -16 14 -3 52 -12 86 -20 34 -8 74 -17 90 -20 16 -3 40 -8 54 -11 110 -22
254 -32 445 -29 105 2 197 4 205 5 67 6 168 21 180 26 13 5 49 11 88 15 6 1
12 5 12 10 0 5 4 6 10 3 5 -3 29 0 52 6 24 7 46 13 51 15 4 1 8 2 10 4 3 2 23
7 61 15 16 3 34 9 40 13 6 3 17 7 25 9 8 1 17 5 20 10 3 4 17 10 31 12 14 1
28 8 32 15 4 6 8 8 8 4 0 -4 24 3 53 16 28 13 80 36 114 51 34 15 60 33 56 38
-3 6 -1 7 5 3 6 -3 33 7 61 24 28 16 51 27 51 24 0 -3 11 7 25 22 14 15 25 22
25 15 0 -7 11 0 25 15 14 15 25 24 25 20 0 -3 11 1 25 10 14 9 23 20 20 24 -3
4 3 7 13 6 9 0 16 5 14 12 -1 8 2 11 9 7 6 -4 28 7 49 24 21 17 44 31 49 31 6
0 11 6 11 13 0 7 12 20 28 30 39 24 127 109 124 120 -1 4 1 6 6 3 12 -7 54 38
45 48 -5 4 -1 6 7 4 8 -2 14 3 13 9 -2 7 1 12 5 10 14 -4 112 115 105 127 -3
6 -3 8 2 4 11 -10 66 54 60 70 -3 7 -1 11 4 7 5 -3 19 8 31 25 12 16 18 30 14
30 -4 0 5 12 20 27 16 16 24 33 21 42 -3 8 -3 12 1 8 10 -9 34 12 34 30 0 8 7
21 15 30 8 8 13 19 10 24 -4 5 -1 9 5 9 6 0 18 16 26 35 8 19 19 35 24 35 6 0
9 3 8 8 -4 13 21 72 30 72 5 0 9 6 10 13 0 10 84 225 114 292 4 11 10 29 12
40 2 11 9 33 15 49 7 16 9 31 6 34 -2 3 0 11 7 19 6 7 8 16 5 20 -4 3 -3 11 2
17 10 13 42 183 46 246 2 25 6 60 9 78 21 114 11 425 -19 597 -3 17 -6 37 -6
45 -1 27 -50 225 -59 242 -6 10 -10 29 -10 43 0 14 -5 25 -10 25 -6 0 -10 6
-8 13 3 12 -80 227 -91 237 -3 3 -7 13 -9 23 -2 10 -16 40 -33 68 -16 27 -29
54 -29 59 0 17 -48 79 -55 72 -5 -4 -5 -2 -2 5 4 6 -1 19 -10 29 -10 10 -16
19 -13 20 3 2 -2 12 -11 22 -8 10 -18 26 -22 36 -4 10 -12 14 -18 10 -8 -4 -9
-3 -5 5 8 13 -28 64 -38 53 -4 -3 -4 0 -1 9 6 15 -47 84 -57 73 -3 -3 -5 3 -4
13 0 10 -5 17 -12 15 -8 -1 -11 2 -7 8 3 5 -1 13 -9 16 -9 3 -16 11 -16 16 0
11 -132 155 -137 150 -2 -1 -18 15 -36 35 -17 21 -36 40 -40 42 -4 1 -17 12
-28 24 -10 11 -19 17 -19 11 0 -5 -5 -1 -11 9 -6 9 -14 15 -20 12 -5 -4 -9 1
-9 9 0 16 -33 39 -43 30 -3 -3 -8 0 -13 7 -5 8 -3 10 7 4 12 -8 12 -6 0 8 -7
9 -19 17 -26 17 -7 0 -16 7 -19 16 -4 10 -13 13 -28 9 -14 -4 -18 -3 -11 2 16
11 -111 98 -128 87 -7 -4 -9 -3 -5 4 3 6 -3 16 -14 22 -11 6 -20 8 -20 5 0 -5
-29 17 -56 43 -12 11 -14 11 -14 0 0 -9 -3 -10 -8 -2 -19 30 -343 170 -365
158 -6 -4 -9 -3 -4 1 8 10 -62 37 -75 29 -4 -3 -8 0 -8 6 0 7 -6 10 -12 7 -7
-2 -28 2 -46 10 -18 7 -37 11 -42 8 -5 -3 -11 -1 -14 4 -4 5 -25 12 -49 16
-23 4 -51 9 -62 11 -11 3 -37 6 -57 9 -21 2 -41 6 -46 9 -20 12 -471 33 -483
22z m141 -398 c0 7 4 11 8 8 4 -2 49 -6 100 -7 51 -2 92 -7 92 -11 0 -5 9 -4
19 2 14 7 23 6 33 -3 7 -6 33 -12 58 -11 25 0 51 -4 57 -9 7 -5 19 -7 28 -4 8
4 17 1 21 -4 3 -6 15 -9 25 -6 11 3 19 1 19 -5 0 -5 10 -8 23 -7 12 2 27 1 32
-3 13 -8 214 -78 243 -85 12 -3 22 -10 22 -16 0 -6 3 -8 6 -4 3 3 26 -6 50
-19 24 -14 44 -22 44 -19 0 4 7 -1 16 -9 8 -9 19 -14 24 -11 5 3 10 0 12 -5 2
-6 13 -12 25 -13 12 0 20 -4 18 -7 -2 -4 10 -15 27 -25 22 -13 29 -14 24 -4
-4 8 2 3 13 -11 11 -14 21 -20 21 -15 0 6 5 2 11 -8 6 -9 14 -15 20 -12 5 4 9
1 9 -5 0 -7 7 -9 16 -6 9 3 12 2 9 -5 -4 -6 2 -13 14 -16 12 -3 21 -10 21 -15
0 -5 5 -6 12 -2 6 4 8 3 5 -3 -4 -6 10 -22 31 -35 20 -14 62 -48 93 -76 31
-28 60 -48 64 -44 5 4 5 2 2 -4 -7 -12 25 -47 36 -39 4 3 5 2 2 -2 -7 -9 26
-44 37 -37 4 3 7 1 6 -3 -4 -12 58 -83 66 -77 3 2 4 1 1 -3 -4 -5 53 -84 75
-103 3 -3 20 -26 37 -52 16 -26 33 -44 37 -40 4 3 4 -2 0 -12 -5 -13 -4 -17 4
-12 8 5 10 2 6 -8 -3 -9 -2 -16 3 -16 5 0 17 -18 27 -40 10 -22 22 -40 27 -40
6 0 8 -4 5 -9 -3 -5 1 -12 10 -15 8 -3 13 -10 10 -15 -3 -5 13 -49 36 -97 23
-49 43 -91 43 -94 9 -35 18 -60 24 -60 3 0 7 -12 8 -27 0 -15 6 -29 12 -31 5
-2 7 -10 4 -19 -4 -10 -2 -14 4 -10 6 4 8 -3 5 -20 -3 -17 -1 -24 6 -19 6 4 8
-1 5 -13 -3 -10 0 -22 5 -25 6 -3 8 -15 5 -26 -3 -11 -1 -20 5 -20 6 0 8 -10
4 -22 -3 -11 -1 -19 4 -16 5 4 9 -6 10 -20 2 -61 9 -122 14 -122 3 0 6 -8 6
-17 2 -65 14 -195 19 -202 3 -5 2 -12 -3 -15 -5 -3 -6 -28 -2 -56 4 -28 3 -53
-1 -55 -4 -3 -5 -14 -2 -25 3 -11 0 -26 -6 -34 -7 -8 -8 -17 -3 -20 10 -6 -1
-97 -14 -118 -4 -7 -3 -8 4 -4 8 5 9 -1 2 -21 -6 -15 -12 -41 -14 -58 -2 -16
-6 -37 -10 -46 -4 -9 -8 -33 -9 -53 -1 -20 -6 -36 -11 -36 -4 0 -6 -9 -3 -20
3 -11 1 -18 -4 -14 -5 3 -9 -3 -10 -13 -1 -28 -5 -43 -33 -112 -14 -35 -23
-68 -20 -72 3 -5 0 -9 -6 -9 -7 0 -9 -7 -6 -16 3 -8 2 -13 -2 -10 -8 5 -35
-56 -32 -70 1 -4 -3 -10 -8 -13 -17 -11 -43 -71 -36 -83 5 -7 3 -8 -6 -3 -10
6 -12 4 -7 -9 4 -10 3 -15 -3 -11 -6 3 -10 1 -10 -4 0 -19 -3 -26 -15 -36 -7
-5 -21 -26 -31 -45 -11 -19 -25 -41 -32 -49 -7 -7 -11 -20 -8 -27 3 -9 0 -11
-11 -7 -11 4 -14 2 -11 -8 2 -7 -6 -24 -19 -37 -13 -13 -20 -28 -17 -34 4 -6
2 -8 -4 -4 -6 3 -18 -7 -28 -23 -10 -17 -21 -28 -26 -25 -4 3 -8 -1 -8 -8 0
-7 -20 -33 -44 -58 -24 -25 -42 -48 -39 -53 2 -4 1 -6 -4 -5 -10 3 -62 -49
-57 -56 2 -3 1 -4 -3 -1 -11 8 -43 -27 -36 -39 3 -6 3 -8 -1 -4 -10 9 -172
-123 -168 -136 2 -6 0 -8 -3 -4 -10 10 -47 -11 -40 -22 3 -6 0 -7 -8 -4 -8 3
-21 -2 -30 -10 -9 -9 -20 -16 -26 -16 -6 0 -11 -4 -11 -10 0 -5 -6 -9 -12 -7
-7 1 -12 -4 -10 -11 1 -8 -2 -11 -7 -8 -13 9 -91 -35 -84 -47 3 -6 2 -7 -4 -4
-6 4 -33 -5 -62 -18 -28 -14 -55 -25 -61 -25 -5 0 -10 -5 -10 -11 0 -5 -3 -8
-8 -6 -4 3 -25 -3 -46 -14 -22 -10 -43 -19 -47 -19 -4 0 -20 -5 -36 -12 -32
-13 -28 -12 -71 -22 -18 -4 -30 -11 -28 -14 2 -4 -8 -8 -22 -8 -15 -1 -36 -4
-47 -7 -11 -3 -51 -13 -88 -21 -38 -8 -72 -17 -75 -20 -3 -3 -11 -1 -18 5 -8
7 -14 7 -19 -1 -3 -5 -23 -10 -43 -10 -20 0 -52 -4 -70 -9 -17 -5 -32 -7 -32
-3 0 4 -19 6 -42 5 -24 -1 -43 -2 -43 -3 0 -1 -8 -3 -17 -5 -10 -2 -18 0 -18
3 0 4 -19 6 -42 5 -24 -1 -43 -2 -43 -3 0 -1 -8 -3 -17 -5 -10 -2 -18 0 -18 3
0 4 -21 7 -47 7 -27 0 -77 4 -113 9 -36 4 -78 9 -95 9 -16 1 -32 5 -35 9 -3 3
-21 9 -40 13 -19 3 -42 8 -50 9 -8 2 -22 6 -30 9 -8 3 -46 15 -85 27 -38 11
-85 28 -103 36 -18 8 -37 12 -44 8 -6 -4 -8 -3 -5 3 6 9 -59 39 -76 35 -4 -1
-7 3 -7 9 0 6 -6 9 -12 7 -7 -3 -19 2 -27 9 -7 8 -20 12 -28 9 -8 -3 -12 -2
-9 3 3 5 -2 12 -12 16 -9 3 -18 5 -18 3 -1 -2 -11 5 -21 15 -11 9 -23 14 -26
10 -4 -3 -7 -2 -7 4 0 6 -16 20 -36 32 -41 24 -48 26 -38 9 4 -8 3 -10 -2 -5
-5 5 -9 14 -9 20 0 7 -12 11 -25 9 -16 -1 -20 1 -13 6 9 6 3 14 -20 27 -17 11
-36 18 -42 16 -5 -1 -7 1 -3 4 8 8 -72 71 -84 67 -5 -1 -7 2 -5 6 1 5 -14 22
-33 38 -19 16 -43 39 -53 52 -10 12 -23 20 -28 16 -5 -3 -8 -1 -7 4 2 5 -10
23 -27 39 -16 16 -41 43 -55 60 -13 17 -29 29 -34 26 -5 -3 -6 -1 -3 4 4 6 -2
18 -13 28 -11 10 -17 22 -14 26 3 5 -2 9 -10 9 -8 0 -18 9 -21 20 -4 11 -11
17 -17 14 -6 -4 -8 -3 -5 3 7 12 -37 65 -47 56 -4 -4 -4 0 -1 9 3 8 0 22 -8
29 -7 8 -15 19 -18 24 -2 6 -8 9 -12 7 -5 -1 -6 2 -3 7 4 5 1 15 -6 23 -7 7
-14 20 -16 28 -2 8 -13 31 -26 50 -12 19 -31 54 -41 78 -10 23 -23 42 -28 42
-4 0 -6 4 -2 9 3 6 -6 33 -19 61 -14 28 -28 64 -31 80 -4 17 -11 30 -16 30 -6
0 -8 4 -5 8 3 5 -2 28 -11 53 -8 24 -17 55 -19 68 -3 14 -8 29 -11 35 -4 6 -8
21 -9 34 -2 14 -6 32 -10 41 -3 9 -8 34 -10 56 -3 22 -8 54 -13 72 -6 21 -6
35 0 39 6 3 5 11 -2 20 -17 21 -15 424 2 499 15 62 27 150 22 158 -3 6 -1 7 5
3 7 -4 12 0 13 11 0 10 3 27 5 38 3 11 6 31 8 45 1 14 6 32 11 40 12 19 56
140 58 160 1 8 5 17 8 20 7 5 59 117 59 126 0 3 9 19 21 35 11 16 17 34 13 41
-4 7 -3 10 1 6 9 -9 56 63 49 74 -3 5 -1 8 5 8 12 0 42 54 36 64 -3 3 -2 4 2
1 9 -7 43 47 36 58 -3 6 -2 7 4 4 8 -5 43 25 43 38 0 3 15 22 32 41 18 20 38
45 45 57 7 12 12 19 13 14 0 -4 17 12 38 35 20 23 36 46 34 52 -2 6 0 8 4 4 8
-9 110 81 106 94 -1 5 2 7 7 4 5 -4 14 2 20 11 5 10 12 15 16 11 7 -7 60 42
60 57 0 5 7 10 17 10 9 0 28 10 41 22 14 12 28 19 31 16 3 -4 6 -2 6 3 0 6 18
18 40 28 22 10 38 21 35 26 -3 4 3 7 13 6 9 0 16 4 15 11 -2 8 4 10 14 6 12
-5 14 -3 8 7 -5 8 -4 11 2 7 5 -3 50 13 99 37 49 23 118 53 154 66 36 13 67
26 70 29 3 3 11 6 18 7 37 3 43 5 39 12 -3 4 5 8 16 8 36 3 92 16 97 22 3 4
20 8 39 9 18 1 39 8 47 14 11 9 14 9 14 0 0 -7 4 -10 9 -7 19 12 151 33 151
24 0 -5 6 -6 13 -1 20 12 171 19 179 8 5 -6 8 -5 8 3z"/>
<path d="M2130 3157 c-3 -3 -22 -7 -43 -9 -20 -1 -37 -6 -37 -10 0 -4 -7 -5
-15 -2 -8 4 -15 2 -15 -4 0 -6 -9 -8 -20 -5 -11 3 -26 0 -33 -6 -8 -6 -16 -9
-19 -6 -2 3 -20 0 -39 -6 -19 -6 -52 -12 -74 -15 -48 -6 -57 -12 -49 -27 5 -9
4 -9 -6 0 -10 9 -18 9 -34 0 -12 -6 -23 -12 -26 -12 -50 -8 -79 -18 -75 -25 3
-4 -5 -6 -17 -2 -14 3 -19 1 -14 -6 4 -7 -1 -10 -14 -7 -11 2 -20 -1 -20 -6 0
-6 -4 -8 -9 -5 -13 8 -74 -15 -89 -33 -8 -9 -10 -10 -6 -2 5 10 1 11 -17 6
-13 -4 -26 -12 -27 -16 -2 -5 -7 -7 -12 -4 -5 3 -21 0 -37 -7 -15 -6 -30 -12
-33 -12 -45 -10 -100 -31 -100 -38 0 -5 -4 -7 -9 -4 -4 3 -33 -3 -64 -14 -31
-11 -63 -20 -72 -20 -8 0 -15 -4 -15 -10 0 -5 -6 -7 -14 -4 -8 3 -22 2 -31 -3
-11 -6 -35 -5 -68 4 -87 22 -174 18 -205 -11 -32 -29 -80 -137 -103 -232 -36
-152 -25 -487 18 -530 8 -8 11 -14 8 -14 -10 0 83 -63 121 -83 17 -9 34 -13
38 -10 3 4 6 1 6 -5 0 -7 9 -12 20 -12 11 0 20 -3 20 -7 0 -5 11 -9 25 -9 20
-2 25 3 25 23 0 13 5 33 10 44 8 14 7 19 -1 19 -7 0 -6 9 5 24 10 16 12 27 6
31 -6 4 -4 12 5 21 8 9 15 23 15 33 0 9 5 22 12 29 7 7 9 12 4 12 -4 0 0 7 8
16 9 8 14 19 11 24 -3 4 2 10 10 14 8 3 15 10 15 16 0 13 68 80 81 80 6 0 7 5
4 10 -4 6 -3 10 2 9 13 -3 73 25 73 33 0 4 7 5 15 2 8 -4 21 -2 28 3 33 24
274 -14 311 -49 11 -10 24 -18 29 -18 4 0 20 -14 34 -30 13 -17 29 -28 34 -25
5 4 6 0 3 -8 -3 -8 2 -21 10 -30 8 -8 12 -17 9 -21 -4 -3 -1 -6 5 -6 7 0 11
-3 10 -7 -4 -16 14 -73 22 -73 5 0 6 -7 3 -17 -4 -10 -2 -14 4 -10 6 4 8 -3 5
-18 -3 -17 0 -25 9 -25 11 0 11 -2 -1 -10 -8 -5 -10 -10 -4 -10 6 0 9 -12 6
-29 -4 -26 -1 -29 32 -33 20 -2 39 -2 42 1 8 8 34 10 34 3 0 -4 19 -6 42 -5
24 1 43 2 43 3 0 1 8 3 18 5 9 2 17 0 17 -3 0 -4 42 -7 92 -8 51 0 220 -2 376
-3 193 -1 282 -5 282 -13 0 -7 5 -7 14 1 10 9 16 9 21 1 4 -6 12 -7 18 -3 7 5
26 7 42 6 29 -3 40 -3 68 -3 6 1 31 -1 55 -2 23 -2 42 0 42 3 0 4 10 6 23 5
17 -1 23 5 25 27 2 16 -3 36 -10 45 -9 11 -10 14 0 8 12 -7 13 -5 16 43 0 11
4 23 8 27 4 4 2 14 -5 22 -9 12 -9 14 0 9 8 -5 18 5 28 29 18 44 18 47 3 38
-7 -4 -8 -3 -4 5 4 6 11 9 16 6 7 -4 34 49 35 70 0 6 9 9 19 7 14 -3 17 1 12
13 -3 9 -2 14 3 10 5 -3 15 1 23 8 7 7 28 19 45 26 18 7 31 16 29 20 -2 3 12
7 32 8 19 1 38 5 41 10 8 11 211 11 211 0 0 -5 9 -7 20 -4 11 3 20 1 20 -4 0
-5 8 -9 18 -9 9 0 26 -7 36 -15 24 -18 40 -19 30 -2 -4 7 -3 9 2 4 5 -5 9 -14
9 -20 0 -7 8 -11 18 -11 9 1 15 -1 12 -5 -6 -10 32 -41 40 -33 3 4 3 -1 -1
-11 -3 -9 -2 -17 2 -17 14 0 62 -119 64 -157 9 -150 12 -163 30 -163 10 0 22
5 25 10 5 8 11 7 21 -1 8 -6 14 -7 14 -3 0 5 19 15 43 22 64 20 144 79 187
140 22 30 37 59 34 63 -3 5 0 9 7 9 6 0 9 8 6 20 -3 11 -2 18 3 15 10 -6 18
14 15 42 -1 12 2 20 6 18 12 -8 17 43 5 56 -8 9 -7 10 3 4 11 -6 13 -4 8 9 -4
10 -7 20 -7 22 0 3 -5 2 -12 -2 -7 -4 -8 -3 -4 5 10 15 -21 64 -35 56 -5 -4
-8 -1 -7 7 2 7 -3 12 -10 10 -8 -1 -11 2 -8 7 3 5 -9 21 -26 35 -18 14 -41 33
-50 42 -10 9 -22 13 -30 8 -7 -4 -10 -4 -6 1 10 10 -11 37 -23 29 -5 -3 -9 0
-9 6 0 6 -4 8 -10 5 -5 -3 -10 1 -10 9 0 14 -19 21 -43 17 -5 -1 -6 3 -3 8 5
7 -7 17 -34 26 -3 1 -13 5 -22 9 -10 5 -25 5 -34 2 -8 -3 -13 -2 -10 3 3 5 -1
11 -9 15 -8 3 -17 1 -21 -5 -4 -6 -11 -6 -19 1 -8 7 -19 9 -25 5 -5 -3 -10 -1
-10 6 0 10 -3 10 -12 1 -7 -7 -17 -8 -30 -1 -12 7 -18 6 -18 -1 0 -7 -6 -8
-18 -1 -9 5 -35 10 -57 12 -22 1 -44 5 -50 8 -5 3 -21 7 -35 8 -14 2 -34 7
-45 12 -38 15 -150 52 -165 54 -8 1 -17 4 -20 7 -7 8 -82 39 -100 42 -8 2 -19
8 -25 15 -5 7 -17 13 -25 15 -8 2 -21 9 -28 16 -8 7 -18 10 -23 7 -5 -4 -9 -2
-9 3 0 9 -37 25 -52 23 -5 -1 -8 4 -8 10 0 5 -4 8 -9 5 -5 -4 -11 -2 -13 2 -6
15 -129 73 -140 66 -6 -4 -8 -2 -5 3 4 6 0 14 -9 17 -10 4 -13 2 -9 -7 4 -6 0
-4 -9 7 -8 10 -20 15 -27 10 -8 -4 -10 -3 -5 4 6 11 2 13 -19 12 -3 -1 -13 6
-22 15 -8 9 -22 14 -29 11 -8 -3 -14 -1 -14 5 0 6 -7 8 -16 5 -8 -3 -12 -2 -9
3 7 13 -28 23 -51 15 -16 -5 -16 -4 -4 5 11 8 11 11 3 12 -17 2 -24 4 -45 13
-10 5 -25 6 -33 2 -9 -3 -15 0 -15 8 0 10 -7 12 -22 8 -11 -3 -19 -1 -16 4 4
5 -6 9 -20 10 -25 1 -77 10 -77 14 0 9 -257 25 -265 17z m125 -131 c57 -6 74
-10 165 -38 70 -21 100 -32 143 -55 15 -8 27 -11 27 -8 0 4 12 -3 26 -14 15
-12 33 -21 40 -21 8 0 14 -3 14 -8 0 -9 61 -38 73 -34 5 1 5 -3 1 -9 -5 -9 -2
-10 10 -6 9 4 15 3 11 -2 -3 -6 8 -18 25 -27 46 -28 38 -48 -13 -32 -34 11
-44 11 -94 5 -18 -3 -33 -2 -33 2 0 3 -48 7 -107 9 -59 2 -127 7 -150 11 -25
5 -46 5 -49 0 -3 -5 -10 -6 -16 -3 -6 4 -52 8 -102 10 -147 6 -278 13 -321 19
-22 2 -105 7 -185 10 -182 7 -229 14 -181 30 12 3 19 11 15 16 -3 5 -2 8 3 7
13 -4 73 24 68 32 -3 4 3 7 13 6 9 0 16 4 15 10 -1 6 8 10 20 9 23 -2 90 24
95 38 2 4 8 5 13 1 5 -3 15 -2 22 3 14 9 19 10 48 12 11 0 18 4 16 9 -3 4 7 8
21 8 15 1 47 4 72 8 107 16 177 21 210 15 19 -4 58 -10 85 -13z"/>
<path d="M3356 2363 c-3 -3 -17 -8 -31 -9 -36 -4 -115 -45 -131 -69 -8 -10
-14 -15 -14 -10 0 5 -13 -6 -30 -25 -16 -18 -27 -37 -23 -43 3 -6 1 -7 -4 -4
-8 5 -34 -36 -39 -63 0 -3 -6 -18 -13 -34 -13 -32 -17 -151 -6 -188 13 -46 47
-112 77 -149 32 -40 88 -84 73 -58 -5 8 3 2 17 -13 34 -36 134 -66 161 -49 12
8 16 8 12 2 -9 -15 38 -14 54 2 11 10 12 9 6 -2 -6 -10 -1 -12 26 -6 100 21
178 81 238 183 17 28 28 52 25 52 -2 0 0 8 5 18 5 9 10 35 12 57 1 22 7 46 12
53 6 7 6 12 -1 12 -6 0 -9 8 -8 18 2 9 -1 31 -6 47 -11 34 -16 56 -17 68 -1 5
-6 5 -13 1 -7 -4 -8 -3 -4 4 8 14 -24 73 -36 66 -4 -3 -5 1 -3 9 3 7 -3 22
-15 32 -11 10 -20 14 -20 10 0 -4 -8 2 -19 13 -33 39 -127 75 -206 78 -40 2
-75 0 -79 -3z"/>
<path d="M1256 2346 c-26 -8 -51 -17 -55 -22 -3 -5 -13 -10 -21 -12 -8 -2 -16
-8 -18 -13 -2 -5 -8 -9 -13 -9 -16 0 -48 -33 -42 -44 3 -6 2 -8 -2 -3 -12 10
-55 -33 -55 -55 0 -10 -4 -18 -8 -18 -13 0 -34 -78 -26 -92 4 -6 3 -8 -3 -5
-6 4 -13 -4 -15 -18 -3 -14 -2 -25 1 -25 3 0 6 -16 6 -35 0 -19 -3 -35 -7 -35
-4 0 -2 -13 3 -29 5 -15 9 -34 7 -42 -2 -8 3 -13 10 -11 8 1 11 -2 7 -7 -9
-16 34 -101 51 -101 8 0 13 -4 9 -9 -7 -13 57 -72 72 -66 7 2 12 -1 10 -8 -1
-7 4 -11 11 -9 6 1 12 -3 12 -9 0 -6 9 -9 20 -6 11 3 18 1 14 -4 -5 -9 4 -12
39 -12 9 0 17 -3 17 -8 0 -4 18 -7 40 -7 27 0 38 4 33 12 -4 6 0 5 9 -2 9 -7
27 -11 39 -8 76 15 88 19 82 29 -3 6 -1 7 5 3 14 -8 72 20 72 35 0 6 4 8 9 5
11 -7 33 19 23 28 -4 4 0 6 8 4 8 -2 14 3 12 10 -1 8 2 11 7 8 5 -4 19 7 31
24 12 16 18 30 15 30 -4 0 1 7 10 16 9 9 14 23 11 31 -3 8 -2 12 3 8 24 -14
38 190 15 226 -4 8 -10 22 -11 32 -5 32 -73 128 -85 121 -6 -4 -8 -3 -5 3 4 6
-10 23 -30 39 -20 15 -33 21 -28 13 4 -8 -2 -4 -14 9 -12 12 -30 22 -39 22
-10 0 -23 5 -28 10 -17 17 -154 20 -208 6z"/>
</g>
</svg>
