<?xml version="1.0" standalone="no"?>
<!DOCTYPE svg PUBLIC "-//W3C//DTD SVG 20010904//EN"
 "http://www.w3.org/TR/2001/REC-SVG-20010904/DTD/svg10.dtd">
<svg version="1.0" xmlns="http://www.w3.org/2000/svg"
 width="636.000000pt" height="636.000000pt" viewBox="0 0 636.000000 636.000000"
 preserveAspectRatio="xMidYMid meet">
<metadata>
Created by potrace 1.11, written by Peter Selinger 2001-2013
</metadata>
<g transform="translate(0.000000,636.000000) scale(0.100000,-0.100000)"
fill="#000000" stroke="none">
<path d="M1965 6234 c-173 -24 -320 -70 -465 -145 -311 -161 -561 -431 -745
-804 -291 -592 -361 -1355 -198 -2165 116 -581 360 -1193 704 -1773 136 -228
470 -710 551 -792 19 -20 19 -20 10 5 -6 14 -29 66 -52 115 -602 1292 -880
2673 -740 3677 117 836 507 1346 1104 1443 117 19 344 19 471 0 283 -43 575
-144 913 -317 83 -42 152 -74 152 -69 0 16 -276 278 -380 361 -283 226 -587
378 -879 441 -93 19 -369 34 -446 23z"/>
<path d="M4500 5344 c-14 -2 -59 -9 -100 -15 -251 -36 -562 -151 -855 -317
-100 -57 -408 -260 -455 -301 l-35 -30 85 30 c170 62 277 98 390 133 811 248
1454 194 1813 -153 237 -228 347 -530 347 -950 0 -269 -37 -512 -120 -794
-278 -938 -965 -1932 -1867 -2701 -90 -76 -163 -141 -163 -143 0 -7 99 50 235
135 540 336 1054 804 1412 1285 418 562 681 1183 769 1818 25 176 25 552 0
709 -64 412 -205 719 -436 951 -234 234 -528 352 -873 348 -67 -1 -133 -3
-147 -5z"/>
<path d="M1715 4707 c-231 -76 -305 -362 -142 -544 20 -21 62 -52 94 -69 51
-26 68 -29 148 -29 84 0 95 2 153 34 130 71 197 207 171 348 -29 158 -149 262
-309 269 -44 2 -91 -2 -115 -9z m-71 -372 c22 -54 64 -89 128 -106 86 -23 180
23 214 106 15 34 24 45 42 45 63 0 -24 -138 -118 -186 -22 -11 -57 -17 -95
-17 -91 0 -173 51 -216 135 -25 49 -24 68 4 68 17 0 26 -11 41 -45z"/>
<path d="M2462 4570 c-46 -19 -142 -91 -142 -108 0 -9 28 -44 61 -78 l61 -62
-12 -37 c-9 -27 -32 -52 -91 -98 -43 -34 -79 -68 -79 -74 0 -9 15 -13 43 -13
32 0 62 11 121 45 112 63 143 90 187 158 65 100 65 174 -1 239 -32 33 -44 38
-81 37 -24 0 -54 -4 -67 -9z m121 -237 c21 -6 21 -12 1 -41 -20 -29 -26 -28
-47 8 -20 33 -14 55 12 45 9 -4 24 -10 34 -12z"/>
<path d="M2632 3869 c-50 -25 -85 -68 -107 -128 -23 -65 -23 -1377 0 -1442 32
-89 90 -140 180 -159 111 -23 212 26 261 127 l29 58 6 430 c4 343 9 444 22
500 41 180 98 235 252 242 103 5 140 -12 174 -80 33 -67 40 -179 41 -658 0
-447 3 -472 61 -542 106 -129 321 -103 398 48 l26 50 6 440 c8 540 14 578 106
667 52 50 116 78 181 78 113 0 166 -58 182 -201 6 -46 10 -276 10 -510 0 -466
2 -488 59 -566 77 -106 253 -118 354 -24 83 76 90 140 84 744 -5 524 -9 564
-64 677 -37 76 -132 169 -213 208 -235 111 -521 70 -705 -101 l-69 -64 -59 64
c-109 116 -265 172 -447 160 -145 -10 -253 -52 -371 -144 -61 -47 -69 -51 -69
-28 0 25 -36 88 -67 117 -63 61 -180 77 -261 37z"/>
<path d="M1730 3829 c-55 -25 -95 -62 -123 -114 -22 -40 -22 -42 -22 -740 l0
-700 22 -41 c94 -176 340 -177 428 -4 l25 49 0 696 0 696 -25 49 c-56 111
-193 160 -305 109z"/>
<path d="M2050 1421 c0 -5 21 -28 48 -52 254 -237 559 -387 884 -435 135 -20
362 -15 477 10 186 41 371 123 512 228 121 90 117 97 -19 31 -198 -97 -369
-139 -613 -150 -389 -17 -861 110 -1206 325 -46 28 -83 47 -83 43z"/>
</g>
</svg>
