<?xml version="1.0" standalone="no"?>
<!DOCTYPE svg PUBLIC "-//W3C//DTD SVG 20010904//EN"
 "http://www.w3.org/TR/2001/REC-SVG-20010904/DTD/svg10.dtd">
<svg version="1.0" xmlns="http://www.w3.org/2000/svg"
 width="1195.000000pt" height="1195.000000pt" viewBox="0 0 1195.000000 1195.000000"
 preserveAspectRatio="xMidYMid meet">
<metadata>
Created by potrace 1.11, written by Peter Selinger 2001-2013
</metadata>
<g transform="translate(0.000000,1195.000000) scale(0.100000,-0.100000)"
fill="#000000" stroke="none">
<path d="M5780 11908 c0 -89 -16 -83 224 -84 l214 -1 5 56 c3 35 0 59 -7 63
-6 4 -107 8 -223 8 l-213 0 0 -42z"/>
<path d="M5510 11933 c-94 -5 -100 -8 -100 -51 0 -81 3 -83 89 -77 42 3 95 8
119 11 l42 5 0 60 0 59 -47 -2 c-27 -1 -73 -3 -103 -5z"/>
<path d="M6350 11876 l0 -66 53 -1 c28 0 82 -3 119 -7 l66 -8 6 36 c14 87 15
87 -71 94 -43 4 -99 9 -125 12 l-48 6 0 -66z"/>
<path d="M5140 11891 c-58 -9 -105 -20 -105 -26 0 -5 4 -33 8 -60 l7 -51 114
16 c63 8 118 18 121 22 4 4 4 32 0 63 -5 43 -10 55 -23 54 -9 -1 -64 -9 -122
-18z"/>
<path d="M6726 11879 c-3 -13 -7 -41 -8 -61 -4 -34 -2 -37 27 -42 77 -14 206
-29 210 -25 2 3 7 30 11 60 l6 56 -73 11 c-174 27 -168 27 -173 1z"/>
<path d="M4765 11827 c-55 -12 -100 -26 -100 -32 1 -31 18 -96 26 -101 6 -3
62 4 125 17 107 20 115 23 110 43 -2 12 -8 38 -11 59 -9 44 -8 44 -150 14z"/>
<path d="M7090 11784 c-7 -30 -10 -57 -8 -59 1 -2 48 -13 103 -24 55 -12 108
-24 117 -27 13 -4 19 6 29 51 7 34 9 59 3 64 -8 8 -200 51 -225 51 -4 0 -13
-25 -19 -56z"/>
<path d="M4408 11742 c-53 -15 -100 -30 -103 -34 -4 -3 0 -31 9 -61 l16 -55
112 30 c62 17 116 33 119 36 4 4 0 31 -9 60 -10 36 -20 52 -31 51 -9 0 -60
-13 -113 -27z"/>
<path d="M7465 11748 c-12 -36 -26 -100 -22 -104 4 -5 213 -64 225 -64 8 0 47
109 40 114 -2 2 -48 15 -103 30 -55 15 -108 30 -118 32 -9 3 -19 -1 -22 -8z"/>
<path d="M4050 11633 c-58 -20 -107 -37 -109 -39 -4 -4 28 -95 38 -106 5 -6
215 56 229 68 8 6 -33 114 -42 113 -6 0 -58 -17 -116 -36z"/>
<path d="M7820 11626 c-5 -13 -12 -39 -15 -58 l-6 -33 103 -35 c57 -19 108
-36 114 -38 11 -3 44 76 44 104 0 10 -196 84 -223 84 -4 0 -12 -11 -17 -24z"/>
<path d="M5675 11624 c-829 -54 -1538 -244 -2246 -600 -544 -274 -1004 -608
-1445 -1048 -361 -361 -610 -679 -863 -1100 -433 -721 -687 -1496 -778 -2376
-24 -236 -24 -819 0 -1055 75 -715 247 -1328 546 -1940 213 -437 441 -788 757
-1170 139 -167 522 -550 689 -689 751 -623 1574 -1020 2515 -1215 549 -113
1190 -141 1770 -75 1661 187 3153 1106 4084 2515 1102 1668 1231 3829 335
5621 -203 409 -431 756 -735 1123 -139 168 -532 560 -699 698 -897 738 -1912
1167 -3048 1287 -185 20 -720 34 -882 24z m570 -124 c721 -39 1387 -201 2035
-495 457 -207 949 -526 1340 -869 1638 -1435 2279 -3682 1648 -5776 -155 -517
-422 -1070 -734 -1520 -1227 -1772 -3332 -2669 -5454 -2325 -1380 225 -2614
962 -3484 2081 -545 700 -919 1548 -1071 2430 -117 678 -107 1375 30 2057 268
1326 1032 2525 2131 3338 1026 761 2299 1146 3559 1079z"/>
<path d="M5565 11149 c-1061 -84 -2055 -488 -2900 -1178 -163 -133 -528 -496
-665 -661 -644 -775 -1042 -1682 -1169 -2662 -25 -185 -41 -392 -41 -508 0
-79 -3 -90 -30 -134 -143 -226 -220 -557 -190 -824 33 -300 158 -512 365 -616
l52 -27 28 -92 c185 -624 536 -1268 984 -1807 129 -156 488 -514 641 -641 849
-700 1814 -1099 2887 -1194 220 -19 676 -19 896 0 1605 142 3029 999 3912
2355 293 449 529 988 666 1515 l41 160 72 75 c138 145 276 398 276 503 -1 104
-101 189 -202 173 l-41 -7 7 61 c13 111 7 599 -8 778 -96 1077 -495 2044
-1194 2892 -121 147 -492 517 -642 641 -856 709 -1853 1114 -2949 1199 -158
12 -637 11 -796 -1z m69 -613 c47 -19 62 -45 102 -174 l35 -112 72 7 c91 10
212 10 302 1 l71 -8 37 114 c41 125 61 157 107 176 63 26 160 -34 160 -98 0
-15 -23 -76 -50 -137 -28 -60 -48 -115 -46 -122 4 -10 57 -13 228 -13 132 0
239 -5 263 -11 116 -32 162 -175 85 -263 -39 -44 -69 -55 -160 -58 -86 -3 -85
-1 -54 -103 15 -51 18 -108 22 -382 3 -244 1 -323 -8 -323 -7 0 -40 13 -74 29
-33 16 -95 40 -136 52 -72 22 -94 23 -530 27 -285 2 -489 0 -545 -7 -95 -11
-214 -47 -272 -81 -68 -40 -65 -56 -61 308 4 301 6 333 26 399 12 40 22 74 22
77 0 2 -37 4 -81 5 -46 1 -93 8 -108 15 -117 61 -121 222 -7 287 39 23 50 24
281 27 132 2 244 7 249 12 4 4 -14 58 -43 120 -28 62 -51 125 -51 140 0 34 34
78 74 96 40 17 49 17 90 0z m940 -1526 c284 -72 485 -329 486 -621 0 -82 -30
-200 -72 -287 -48 -98 -178 -227 -278 -275 -138 -67 -135 -67 -735 -67 -515 0
-544 1 -615 21 -108 29 -194 81 -281 168 -252 252 -249 645 5 896 82 81 179
136 288 165 67 17 115 19 599 19 492 1 531 0 603 -19z m-4367 -1715 c39 -8
152 -40 251 -70 99 -30 219 -61 266 -70 86 -16 87 -16 124 7 109 67 226 99
292 79 81 -24 70 -83 -22 -128 -137 -66 -205 -301 -215 -743 -5 -229 3 -370
28 -502 l12 -58 58 105 c144 259 366 540 582 737 269 244 509 383 807 468 141
40 384 85 400 75 23 -14 6 -33 -52 -61 -107 -50 -239 -145 -328 -235 -287
-291 -492 -774 -581 -1374 -21 -135 -18 -444 4 -522 30 -109 55 -156 105 -200
40 -36 45 -45 36 -60 -26 -42 -216 -34 -313 14 -122 59 -219 199 -262 378 -28
116 -30 332 -4 480 60 345 255 744 518 1057 32 39 54 69 49 67 -31 -11 -192
-149 -297 -254 -374 -373 -618 -805 -759 -1342 -45 -172 -56 -189 -103 -163
-39 22 -63 62 -110 181 -52 130 -85 245 -109 374 -26 142 -27 587 -1 759 10
65 17 120 15 122 -2 1 -44 -93 -93 -209 -210 -498 -335 -774 -416 -919 -102
-180 -259 -384 -363 -470 -221 -185 -499 -239 -714 -138 -94 44 -181 133 -231
234 -52 107 -70 186 -78 331 -19 387 137 744 413 941 l61 43 -5 79 c-10 177
37 411 116 575 89 185 179 279 347 363 126 62 189 75 360 69 77 -2 172 -11
212 -20z m5643 -22 c48 -19 70 -41 93 -92 24 -54 25 -149 2 -236 -39 -148
-191 -407 -337 -574 -112 -128 -111 -117 -6 -113 147 6 249 -40 301 -136 34
-63 37 -154 7 -235 -54 -143 -252 -301 -468 -372 l-53 -17 6 -67 c28 -289 82
-410 191 -427 63 -9 114 16 195 96 109 109 200 261 213 355 56 404 378 750
775 830 120 25 323 17 406 -15 78 -30 159 -109 175 -171 37 -134 -25 -295
-169 -440 -182 -182 -437 -295 -726 -321 -29 -3 -30 -4 -27 -48 8 -116 58
-226 136 -297 233 -214 665 -33 877 366 19 36 100 254 180 485 l146 421 52 -2
c97 -4 191 -76 222 -170 6 -19 9 -64 7 -99 -2 -35 -1 -61 2 -56 3 4 32 40 64
80 74 92 163 167 246 206 60 29 73 31 175 31 140 0 200 -19 265 -84 60 -60 76
-113 73 -246 -1 -126 -29 -236 -122 -485 -105 -282 -138 -426 -108 -480 11
-22 19 -25 59 -23 62 2 132 41 218 120 72 67 182 222 220 310 26 62 50 86 82
81 42 -6 36 -56 -21 -172 -89 -184 -224 -339 -369 -424 -111 -65 -153 -77
-272 -77 -98 0 -109 2 -159 30 -64 36 -104 82 -133 155 -18 46 -22 75 -22 170
0 141 11 181 114 445 124 319 152 421 130 474 -39 94 -174 41 -301 -119 -157
-197 -329 -543 -486 -976 l-67 -186 -54 6 c-133 16 -212 106 -213 244 l-1 63
-61 -58 c-239 -228 -583 -322 -892 -243 -193 49 -336 178 -395 356 -12 35 -23
64 -24 64 -2 0 -16 -19 -31 -42 -231 -355 -603 -495 -799 -301 -54 52 -99 135
-121 220 -22 82 -38 279 -28 337 7 45 11 50 48 65 180 72 332 205 405 354 74
149 64 232 -30 257 -53 14 -94 -4 -166 -72 -155 -146 -359 -550 -540 -1068
-31 -91 -61 -169 -65 -174 -5 -6 -31 -4 -65 3 -103 23 -157 95 -172 229 l-7
63 -40 -52 c-51 -65 -151 -149 -225 -188 -160 -86 -352 -78 -451 19 -55 52
-79 118 -79 214 l0 61 -53 -57 c-133 -144 -316 -250 -512 -294 -114 -26 -321
-24 -428 5 -279 74 -441 305 -424 605 21 372 273 717 628 858 132 53 360 75
491 47 254 -54 325 -274 168 -518 -140 -217 -478 -402 -777 -428 l-73 -6 0
-35 c0 -44 26 -143 52 -198 32 -70 92 -130 166 -166 60 -30 75 -33 157 -33
160 0 293 59 435 192 93 88 145 154 199 254 26 48 134 344 302 830 147 424
276 781 295 815 18 34 58 84 89 112 75 69 145 92 298 99 64 3 117 4 117 1 0
-6 -384 -1129 -582 -1703 -163 -471 -167 -488 -127 -539 24 -31 49 -32 108 -5
96 43 203 163 283 314 20 39 102 261 183 495 167 483 220 619 316 810 118 237
221 383 363 518 124 117 225 173 345 192 67 10 153 3 201 -17z m-2454 -328
c124 -52 46 -287 -125 -374 -59 -31 -147 -51 -216 -50 l-60 0 52 20 c68 26
147 98 167 152 9 23 20 72 25 108 11 84 34 127 74 144 40 18 41 18 83 0z
m1807 -2720 c74 -37 148 -117 179 -193 22 -55 23 -68 23 -327 l0 -270 -28 -60
c-38 -81 -70 -120 -130 -160 -103 -68 -53 -65 -1272 -65 -689 0 -1116 4 -1143
10 -132 31 -237 128 -274 255 -4 16 -8 150 -9 296 0 244 2 271 21 321 35 93
122 177 220 211 40 15 169 16 1200 14 l1155 -2 58 -30z m-3489 -1395 c97 -16
160 -75 177 -166 28 -147 -72 -261 -238 -272 l-73 -5 0 -138 0 -139 -74 0
c-55 0 -75 4 -79 15 -9 21 -9 700 -1 708 11 10 220 8 288 -3z m466 -245 c3
-174 9 -257 18 -272 21 -37 53 -53 108 -53 64 0 108 32 124 88 5 20 10 139 10
265 l0 227 76 0 75 0 -3 -277 c-3 -262 -4 -280 -24 -318 -54 -100 -127 -140
-259 -140 -110 0 -172 26 -222 93 -56 74 -63 117 -63 387 0 133 3 245 7 249 4
4 39 5 78 4 l70 -3 5 -250z m905 231 c85 -36 125 -98 125 -193 0 -79 -35 -152
-86 -183 -22 -13 -40 -25 -42 -26 -2 -1 42 -70 97 -153 l101 -151 -89 0 -90 0
-93 140 c-51 76 -96 139 -100 140 -5 0 -8 -63 -8 -140 l0 -140 -80 0 -80 0 0
366 0 367 153 -5 c112 -4 163 -10 192 -22z m725 -51 l0 -75 -125 0 -125 0 0
-70 0 -70 125 0 125 0 0 -75 0 -75 -125 0 -125 0 0 -75 0 -75 125 0 125 0 0
-70 0 -70 -205 0 -205 0 0 358 c0 197 3 362 7 365 3 4 96 7 205 7 l198 0 0
-75z m739 -137 c35 -115 67 -208 71 -208 3 0 35 93 71 208 l65 207 87 3 c64 2
89 -1 92 -10 3 -7 23 -159 45 -338 22 -179 42 -337 45 -352 l5 -28 -74 0 c-88
0 -74 -34 -112 278 -15 123 -31 217 -34 210 -4 -7 -40 -120 -80 -250 l-74
-238 -36 0 -37 0 -79 249 c-43 138 -80 248 -82 246 -3 -3 -61 -465 -62 -492 0
-7 -150 -2 -150 5 0 15 81 678 86 700 4 22 8 23 96 20 l92 -3 65 -207z m741
-153 l0 -365 -80 0 -80 0 0 358 c0 197 3 362 7 365 3 4 39 7 80 7 l73 0 0
-365z m308 78 l2 -283 105 0 105 0 0 -80 0 -80 -185 0 -185 0 0 365 0 366 78
-3 77 -3 3 -282z m482 131 l0 -156 123 153 122 154 93 3 c50 1 92 0 92 -3 0
-3 -61 -82 -136 -176 l-136 -171 134 -176 c74 -98 138 -183 142 -189 5 -10
-14 -13 -86 -13 l-93 0 -125 167 -125 167 -3 -167 -2 -167 -80 0 -80 0 0 358
c0 197 3 362 7 365 3 4 39 7 80 7 l73 0 0 -156z m-4876 -155 c34 -40 34 -88 2
-126 -20 -23 -32 -28 -71 -28 -39 0 -51 5 -71 28 -32 38 -32 86 2 126 21 26
33 31 69 31 36 0 48 -5 69 -31z m5680 5 c38 -38 36 -95 -3 -135 -18 -17 -40
-29 -56 -29 -34 0 -82 25 -95 49 -50 94 78 190 154 115z"/>
<path d="M5535 9555 c-52 -51 -17 -135 56 -135 26 0 46 7 59 20 13 13 20 33
20 59 0 73 -84 108 -135 56z"/>
<path d="M6352 9564 c-73 -51 -23 -163 64 -146 13 2 33 16 44 30 59 74 -31
170 -108 116z"/>
<path d="M5634 8196 c-77 -34 -98 -118 -44 -179 35 -41 79 -52 123 -33 45 19
68 48 73 93 10 85 -76 152 -152 119z"/>
<path d="M6235 8196 c-50 -22 -70 -52 -70 -106 0 -54 20 -84 72 -106 95 -41
186 63 141 160 -22 50 -92 75 -143 52z"/>
<path d="M2025 7040 c-102 -16 -252 -70 -341 -124 -162 -98 -268 -208 -341
-352 -42 -84 -46 -100 -51 -185 -4 -84 -3 -92 12 -86 116 45 285 53 381 18 74
-26 158 -83 184 -124 25 -40 16 -45 -67 -40 -82 6 -230 -18 -336 -54 l-79 -27
47 -43 c70 -63 137 -84 283 -91 l123 -5 -22 -38 c-23 -42 -70 -78 -133 -105
-124 -51 -324 33 -416 176 l-16 25 -42 -29 c-70 -49 -193 -187 -240 -271 -85
-149 -141 -342 -141 -484 0 -72 24 -182 50 -236 83 -171 279 -246 473 -181 42
14 96 38 120 52 63 40 185 168 246 259 88 132 251 479 395 841 142 359 233
567 310 708 53 97 173 282 222 342 l34 41 -127 7 c-243 12 -468 15 -528 6z"/>
<path d="M7635 7178 c-125 -69 -270 -360 -480 -966 -37 -106 -65 -195 -63
-198 8 -7 169 159 233 241 270 346 472 822 392 923 -12 15 -55 15 -82 0z"/>
<path d="M5038 6175 c-183 -67 -358 -365 -386 -657 -9 -90 -10 -89 84 -64 241
64 488 336 521 571 8 61 -19 130 -57 150 -36 18 -112 18 -162 0z"/>
<path d="M8819 6177 c-189 -71 -362 -365 -394 -671 l-8 -69 45 6 c121 17 263
101 378 224 131 140 195 275 188 396 -3 57 -8 71 -30 94 -22 22 -38 27 -85 30
-32 2 -74 -3 -94 -10z"/>
<path d="M6444 4056 c-75 -34 -118 -147 -96 -252 36 -172 211 -211 291 -65 34
63 35 179 0 241 -13 24 -36 52 -50 63 -34 25 -105 31 -145 13z m100 -72 c23
-22 31 -59 31 -134 -1 -89 -19 -124 -67 -128 -31 -3 -40 1 -55 24 -25 40 -26
188 0 227 20 31 66 37 91 11z"/>
<path d="M6882 4053 c-90 -172 -372 -724 -372 -728 0 -4 17 -5 37 -3 l38 3
187 365 c103 201 187 368 188 373 0 16 -69 7 -78 -10z"/>
<path d="M4845 3988 c-2 -7 -9 -32 -14 -55 l-9 -42 42 -3 41 -3 3 -247 2 -248
65 0 65 0 0 305 0 305 -95 0 c-68 0 -97 -4 -100 -12z"/>
<path d="M5387 3979 c-80 -42 -130 -151 -130 -284 -1 -192 87 -307 234 -307
45 0 69 6 104 26 90 53 127 132 128 276 1 151 -41 243 -134 291 -52 26 -150
25 -202 -2z m142 -104 c82 -42 95 -266 21 -345 -58 -62 -135 -23 -160 81 -25
102 8 240 62 266 31 16 44 15 77 -2z"/>
<path d="M5915 3986 c-83 -38 -135 -136 -143 -266 -11 -200 81 -331 232 -331
67 0 96 12 150 62 65 59 81 108 81 250 0 109 -2 119 -30 174 -44 86 -94 119
-188 122 -46 2 -83 -2 -102 -11z m151 -127 c30 -28 44 -84 44 -173 0 -87 -15
-133 -55 -164 -36 -29 -67 -28 -102 2 -37 32 -53 84 -53 178 0 150 86 231 166
157z"/>
<path d="M6889 3716 c-104 -72 -107 -296 -6 -368 43 -31 124 -32 164 -2 98 73
109 266 19 353 -29 28 -45 35 -88 38 -44 4 -59 0 -89 -21z m128 -73 c26 -39
26 -187 0 -226 -24 -37 -68 -37 -97 0 -19 25 -21 38 -18 119 2 73 7 96 22 113
28 30 71 28 93 -6z"/>
<path d="M3593 2704 c-9 -4 -13 -33 -13 -95 l0 -89 46 0 c60 0 104 40 104 95
0 40 -35 85 -67 85 -10 0 -27 2 -38 5 -11 2 -26 2 -32 -1z"/>
<path d="M4900 2615 l0 -95 41 0 c71 0 108 31 109 91 0 48 -25 78 -75 89 -77
18 -75 21 -75 -85z"/>
<path d="M3710 11504 c-58 -24 -109 -45 -114 -47 -5 -2 1 -29 14 -60 13 -32
29 -56 34 -53 6 2 57 23 114 46 113 47 109 41 73 122 l-16 36 -105 -44z"/>
<path d="M8180 11515 c0 -2 -9 -26 -19 -53 l-20 -50 102 -42 c56 -23 107 -44
114 -47 13 -5 56 84 49 102 -2 7 -48 30 -101 53 -89 39 -125 49 -125 37z"/>
<path d="M3361 11349 c-58 -27 -107 -52 -110 -55 -3 -3 7 -29 23 -59 l28 -54
109 55 c60 30 109 57 109 59 0 7 -50 105 -53 105 -1 -1 -49 -23 -106 -51z"/>
<path d="M8504 11319 c-14 -28 -24 -52 -22 -54 8 -7 209 -105 215 -105 5 0 19
23 33 51 21 43 22 51 10 60 -28 19 -190 99 -200 99 -5 0 -21 -23 -36 -51z"/>
<path d="M3032 11176 c-52 -30 -98 -58 -104 -64 -10 -10 40 -102 55 -102 11 0
207 110 207 116 0 8 -55 104 -60 104 -3 -1 -47 -25 -98 -54z"/>
<path d="M8837 11149 c-16 -28 -27 -52 -25 -53 15 -13 199 -116 205 -116 12 0
64 90 58 100 -5 9 -196 120 -206 120 -2 0 -17 -23 -32 -51z"/>
<path d="M2710 10979 c-52 -33 -99 -64 -103 -69 -9 -8 51 -100 65 -100 6 0
185 114 197 126 3 3 -58 104 -63 104 -1 0 -44 -27 -96 -61z"/>
<path d="M9165 10970 c-15 -23 -28 -47 -31 -54 -3 -7 36 -40 95 -79 l100 -67
31 44 c16 25 30 49 30 55 0 8 -124 97 -187 135 -8 4 -22 -8 -38 -34z"/>
<path d="M2397 10759 c-54 -40 -97 -75 -97 -79 0 -9 63 -90 71 -90 4 0 154
108 188 137 6 4 -15 42 -43 76 l-23 28 -96 -72z"/>
<path d="M9466 10748 c-36 -47 -37 -51 -19 -63 10 -7 54 -40 98 -74 l80 -62
28 33 c55 65 57 60 -51 142 l-99 74 -37 -50z"/>
<path d="M2126 10543 c-38 -32 -81 -67 -94 -79 l-26 -21 21 -29 c53 -74 51
-74 152 12 50 43 91 81 91 84 0 3 -17 24 -38 48 l-37 43 -69 -58z"/>
<path d="M9761 10520 c-18 -22 -31 -45 -29 -51 2 -6 42 -44 88 -85 l85 -74 38
40 c20 21 37 44 37 49 0 11 -168 161 -180 161 -3 0 -21 -18 -39 -40z"/>
<path d="M1818 10263 l-87 -88 45 -38 45 -39 82 78 c45 43 83 81 85 85 4 8
-66 89 -77 89 -3 0 -45 -39 -93 -87z"/>
<path d="M10036 10268 l-35 -43 82 -82 c45 -46 86 -83 92 -83 6 0 28 18 49 39
l39 40 -88 85 c-49 48 -92 86 -96 86 -4 0 -23 -19 -43 -42z"/>
<path d="M1562 10002 c-45 -49 -82 -93 -82 -97 0 -4 19 -24 43 -45 l42 -38 70
76 c104 112 101 102 51 151 l-43 42 -81 -89z"/>
<path d="M10296 10001 l-39 -40 83 -90 83 -90 43 37 c24 20 43 40 42 44 -7 19
-152 178 -162 178 -7 0 -29 -18 -50 -39z"/>
<path d="M1312 9710 c-40 -49 -72 -93 -72 -97 0 -8 80 -68 91 -68 8 0 149 173
149 182 0 10 -76 73 -87 73 -5 0 -42 -40 -81 -90z"/>
<path d="M10553 9728 c-21 -18 -40 -37 -41 -43 -1 -5 30 -51 69 -102 l72 -92
46 36 c25 19 45 40 43 45 -3 13 -130 176 -142 183 -4 3 -26 -10 -47 -27z"/>
<path d="M1129 9472 c-14 -20 -45 -65 -69 -99 -48 -69 -48 -74 18 -111 l40
-22 70 100 71 99 -50 36 c-27 19 -50 35 -52 35 -1 -1 -13 -17 -28 -38z"/>
<path d="M10775 9429 c-21 -17 -41 -32 -43 -34 -3 -3 105 -171 129 -198 8 -10
99 52 99 67 -1 15 -123 189 -135 192 -6 1 -28 -11 -50 -27z"/>
<path d="M881 9096 c-35 -58 -61 -108 -58 -113 8 -12 95 -58 100 -53 14 16
117 190 117 198 0 5 -11 17 -25 26 -79 51 -64 58 -134 -58z"/>
<path d="M10987 9120 c-26 -16 -47 -34 -47 -39 0 -7 99 -176 117 -200 5 -7 95
43 100 55 3 9 -112 214 -121 214 -1 0 -23 -13 -49 -30z"/>
<path d="M693 8770 c-29 -55 -53 -104 -53 -110 0 -9 99 -65 104 -58 2 2 28 51
59 109 l56 106 -48 27 c-27 14 -53 26 -57 26 -5 0 -33 -45 -61 -100z"/>
<path d="M11168 8793 l-47 -26 55 -108 c30 -60 57 -109 59 -109 13 0 105 51
105 58 -1 15 -105 206 -115 208 -5 2 -31 -8 -57 -23z"/>
<path d="M529 8434 c-27 -57 -49 -109 -49 -114 0 -12 90 -52 104 -47 10 4 88
169 98 204 2 7 -21 24 -50 38 l-53 25 -50 -106z"/>
<path d="M11341 8464 c-42 -19 -52 -27 -47 -41 4 -10 26 -61 48 -115 46 -106
35 -100 120 -64 l37 16 -49 111 c-27 62 -51 113 -52 114 -2 2 -27 -8 -57 -21z"/>
<path d="M382 8079 c-23 -62 -39 -116 -35 -120 9 -7 105 -40 108 -36 1 1 18
45 38 97 19 52 38 103 42 112 5 13 -2 21 -31 33 -82 34 -76 38 -122 -86z"/>
<path d="M11485 8119 c-27 -11 -51 -22 -52 -23 -2 -2 77 -219 82 -225 3 -3
106 28 113 34 6 5 -80 235 -87 234 -3 0 -28 -9 -56 -20z"/>
<path d="M296 7832 c-12 -21 -67 -216 -63 -226 4 -10 107 -41 112 -34 7 12 67
229 64 232 -10 10 -109 34 -113 28z"/>
<path d="M11610 7768 c-19 -5 -39 -13 -44 -18 -5 -5 5 -57 24 -123 l33 -114
59 16 c68 18 66 7 19 159 -29 93 -33 97 -91 80z"/>
<path d="M166 7376 c-36 -145 -37 -141 31 -155 31 -6 57 -10 58 -8 1 1 12 49
25 107 13 58 25 110 27 116 2 6 -15 16 -40 22 -25 7 -51 14 -59 17 -12 5 -21
-16 -42 -99z"/>
<path d="M11703 7407 c-24 -5 -43 -15 -43 -21 0 -22 43 -211 50 -219 8 -9 89
0 108 12 7 4 3 41 -15 124 -29 128 -24 123 -100 104z"/>
<path d="M106 7093 c-7 -26 -36 -195 -36 -215 0 -13 13 -18 55 -23 31 -4 58
-6 60 -4 2 3 11 47 20 99 9 52 19 105 21 116 5 18 0 23 -33 28 -21 4 -48 10
-60 13 -15 3 -23 -1 -27 -14z"/>
<path d="M11772 7040 c-18 -4 -35 -9 -37 -11 -2 -3 0 -24 5 -49 5 -25 14 -78
20 -118 l12 -72 51 6 c29 4 56 10 60 14 5 4 1 60 -9 124 -19 129 -17 126 -102
106z"/>
<path d="M46 6708 c-8 -48 -25 -213 -22 -215 2 -2 30 -6 63 -9 l60 -7 7 84 c4
46 9 101 13 121 6 40 8 39 -79 53 -36 5 -37 4 -42 -27z"/>
<path d="M11826 6673 l-39 -4 7 -67 c3 -37 9 -93 13 -125 l6 -59 30 6 c16 3
43 6 60 6 l30 0 -7 88 c-4 48 -10 104 -13 125 -6 40 -2 38 -87 30z"/>
<path d="M10 6312 c0 -27 -3 -83 -6 -125 l-7 -77 67 0 66 0 2 110 c0 61 1 116
2 123 1 8 -19 13 -61 15 l-63 3 0 -49z"/>
<path d="M11878 6302 l-58 -3 0 -57 c0 -31 3 -87 7 -124 l6 -68 43 0 c72 0 74
2 73 94 0 44 -4 99 -7 121 l-7 40 -57 -3z"/>
<path d="M0 5865 l0 -125 65 0 65 0 0 33 c0 19 -3 75 -6 125 l-7 92 -58 0 -59
0 0 -125z"/>
<path d="M11826 5838 c-3 -50 -6 -106 -6 -125 l0 -33 59 0 c71 0 71 0 71 148
l0 102 -59 0 -58 0 -7 -92z"/>
<path d="M62 5612 l-54 -3 6 -57 c3 -31 9 -88 12 -125 l7 -69 56 7 c31 4 57 8
59 10 8 8 -14 239 -23 240 -5 0 -34 -1 -63 -3z"/>
<path d="M11802 5438 c-6 -67 -10 -123 -9 -124 1 -1 28 -4 60 -6 67 -5 63 -15
75 139 l7 101 -35 6 c-90 15 -86 21 -98 -116z"/>
<path d="M102 5243 c-25 -3 -45 -10 -48 -18 -6 -14 22 -224 30 -232 2 -3 30
-1 61 2 l57 8 -6 46 c-21 161 -29 201 -40 199 -6 -1 -30 -3 -54 -5z"/>
<path d="M11758 5074 c-13 -84 -14 -120 -7 -125 14 -8 101 -21 107 -15 4 4 42
240 39 242 -1 1 -29 5 -62 9 l-60 6 -17 -117z"/>
<path d="M152 4870 c-18 -4 -36 -10 -39 -14 -3 -3 4 -57 17 -121 16 -82 27
-115 37 -115 32 0 103 23 103 34 0 6 -10 59 -22 119 -24 117 -22 115 -96 97z"/>
<path d="M11716 4821 c-3 -5 -46 -198 -50 -225 -1 -11 107 -37 115 -28 8 8 49
195 49 221 0 14 -12 20 -55 28 -31 5 -57 7 -59 4z"/>
<path d="M243 4507 c-23 -7 -45 -15 -48 -19 -4 -3 8 -59 25 -123 27 -96 35
-115 49 -110 9 4 35 12 59 18 31 8 42 16 39 27 -3 8 -17 61 -32 118 -16 56
-33 102 -39 101 -6 -1 -30 -6 -53 -12z"/>
<path d="M11620 4427 c-6 -23 -21 -76 -34 -118 l-23 -76 55 -18 c30 -9 58 -13
62 -8 9 9 73 223 68 228 -2 2 -29 10 -60 18 l-58 15 -10 -41z"/>
<path d="M348 4148 l-56 -19 33 -97 c44 -129 45 -132 60 -132 7 0 33 9 58 19
l44 19 -39 113 c-21 62 -40 114 -41 115 -1 1 -27 -7 -59 -18z"/>
<path d="M11517 4093 c-2 -10 -20 -61 -40 -115 l-35 -96 56 -21 c31 -11 58
-19 60 -16 5 5 82 215 82 224 0 6 -95 41 -112 41 -3 0 -8 -8 -11 -17z"/>
<path d="M475 3798 c-27 -12 -52 -23 -53 -24 -6 -4 90 -224 98 -224 4 0 30 9
57 21 l50 21 -46 114 c-25 62 -48 114 -51 113 -3 0 -27 -9 -55 -21z"/>
<path d="M11363 3688 c-17 -40 -38 -89 -46 -109 l-16 -35 55 -27 55 -27 30 67
c17 38 39 90 50 116 l19 48 -46 19 c-25 11 -51 20 -58 20 -7 0 -26 -33 -43
-72z"/>
<path d="M623 3455 c-29 -13 -53 -27 -53 -30 0 -6 100 -207 106 -214 3 -3 29
7 59 22 l55 27 -55 110 c-30 60 -56 110 -58 110 -1 0 -26 -11 -54 -25z"/>
<path d="M11192 3325 c-28 -58 -52 -107 -52 -110 0 -7 86 -55 98 -55 7 0 36
49 66 108 l54 109 -54 26 c-30 15 -56 27 -57 27 -1 0 -26 -47 -55 -105z"/>
<path d="M815 3134 c-82 -44 -81 -31 -13 -150 39 -68 65 -103 73 -100 8 3 32
17 55 31 l41 26 -19 32 c-11 18 -38 65 -62 105 -23 39 -43 72 -44 72 0 -1 -14
-8 -31 -16z"/>
<path d="M11032 3028 c-23 -40 -51 -87 -62 -104 l-21 -32 51 -31 c28 -17 52
-31 54 -31 5 0 113 180 121 201 3 9 -11 23 -44 42 -27 15 -51 27 -53 27 -3 0
-23 -33 -46 -72z"/>
<path d="M983 2802 c-24 -15 -43 -31 -43 -37 0 -6 29 -54 65 -108 l66 -98 47
32 c26 18 49 34 51 36 6 4 -128 203 -137 202 -4 0 -26 -13 -49 -27z"/>
<path d="M10814 2683 l-67 -96 34 -28 c32 -27 67 -45 73 -37 18 22 126 189
126 195 0 8 -81 63 -93 63 -3 0 -36 -43 -73 -97z"/>
<path d="M1197 2495 c-26 -20 -47 -38 -47 -41 0 -8 142 -194 149 -194 3 0 26
17 50 38 l44 38 -68 89 c-38 50 -71 93 -75 98 -4 4 -28 -9 -53 -28z"/>
<path d="M10601 2391 c-39 -50 -71 -95 -71 -100 0 -11 73 -71 86 -71 5 0 20
15 34 33 14 17 48 60 75 95 l48 63 -23 17 c-13 9 -36 25 -51 35 l-27 18 -71
-90z"/>
<path d="M1422 2198 c-23 -18 -41 -35 -41 -38 -1 -3 36 -48 80 -99 l81 -93 44
43 c37 37 42 45 31 58 -61 73 -141 161 -147 161 -4 0 -26 -15 -48 -32z"/>
<path d="M10358 2101 l-77 -88 45 -44 45 -44 32 36 c18 21 53 62 80 92 26 30
47 58 46 63 0 10 -78 74 -88 73 -3 0 -41 -40 -83 -88z"/>
<path d="M1673 1918 l-42 -42 67 -70 c107 -115 102 -112 150 -63 l42 43 -88
87 -87 87 -42 -42z"/>
<path d="M10107 1832 l-87 -88 43 -42 44 -43 77 72 c104 97 104 97 53 147
l-43 42 -87 -88z"/>
<path d="M1935 1652 l-39 -45 59 -54 c33 -30 75 -66 94 -81 l34 -26 38 44 39
45 -77 73 c-108 100 -101 98 -148 44z"/>
<path d="M9840 1582 c-47 -42 -86 -79 -87 -82 -2 -3 14 -25 36 -50 l38 -45 68
60 c37 33 79 69 93 81 l26 21 -39 46 c-22 26 -42 47 -45 46 -3 0 -43 -35 -90
-77z"/>
<path d="M2217 1408 c-27 -32 -33 -46 -25 -56 22 -26 178 -143 186 -138 4 2
22 24 39 48 l31 44 -93 72 c-52 40 -96 72 -99 72 -2 0 -20 -19 -39 -42z"/>
<path d="M9570 1358 c-41 -33 -83 -66 -94 -73 -17 -13 -17 -16 15 -60 18 -25
39 -44 46 -43 7 2 53 34 102 72 l90 69 -37 48 c-20 27 -39 48 -42 48 -3 0 -39
-27 -80 -61z"/>
<path d="M2511 1179 c-19 -27 -32 -51 -30 -53 21 -18 201 -137 203 -135 1 2
17 25 34 51 l32 47 -32 24 c-44 31 -168 117 -171 117 -1 0 -17 -23 -36 -51z"/>
<path d="M9270 1138 c-47 -33 -92 -63 -100 -68 -16 -9 -6 -34 33 -84 l22 -26
98 65 c53 36 97 70 97 76 0 8 -34 60 -59 91 -4 3 -44 -21 -91 -54z"/>
<path d="M2821 971 c-35 -58 -41 -48 88 -125 l95 -56 28 48 c15 26 28 50 28
54 0 6 -195 128 -205 128 -2 0 -17 -22 -34 -49z"/>
<path d="M8946 934 c-50 -30 -94 -58 -98 -62 -5 -5 3 -30 18 -56 20 -35 31
-46 44 -43 23 6 200 110 200 118 0 11 -60 99 -67 98 -5 0 -48 -25 -97 -55z"/>
<path d="M3145 787 c-14 -24 -25 -48 -25 -53 0 -6 49 -35 108 -67 l108 -56 28
55 c15 31 26 58 24 59 -6 5 -208 105 -212 105 -3 0 -17 -20 -31 -43z"/>
<path d="M8618 754 l-107 -54 20 -47 c11 -27 24 -52 28 -56 7 -7 201 81 220
99 5 4 -40 103 -49 109 -3 1 -53 -21 -112 -51z"/>
<path d="M3477 614 l-27 -54 32 -16 c35 -18 187 -84 194 -84 6 0 44 89 44 103
0 7 -24 22 -53 34 -28 12 -77 33 -108 46 l-56 25 -26 -54z"/>
<path d="M8274 593 l-101 -45 21 -54 c12 -30 25 -54 30 -54 4 0 57 21 117 46
l108 45 -23 52 c-12 29 -29 53 -37 54 -8 0 -59 -19 -115 -44z"/>
<path d="M3833 503 c-3 -10 -12 -33 -20 -52 -7 -19 -10 -38 -6 -42 10 -10 200
-79 217 -79 11 0 41 75 41 103 0 8 -198 86 -218 87 -4 0 -10 -8 -14 -17z"/>
<path d="M7938 461 c-53 -20 -100 -39 -103 -43 -11 -11 25 -108 39 -108 7 0
60 17 117 39 69 26 103 43 101 52 -9 41 -36 99 -46 98 -6 -1 -55 -18 -108 -38z"/>
<path d="M4186 388 c-3 -7 -9 -28 -15 -47 -6 -19 -11 -40 -11 -47 0 -8 38 -25
98 -43 140 -43 133 -43 149 9 7 25 12 51 11 58 -2 10 -187 77 -226 82 -1 0 -4
-6 -6 -12z"/>
<path d="M7580 348 c-58 -17 -106 -31 -107 -32 -4 -3 25 -108 31 -114 7 -6
236 59 236 68 0 26 -33 110 -43 109 -7 -1 -59 -15 -117 -31z"/>
<path d="M4539 271 c-6 -14 -11 -41 -12 -60 l-2 -35 115 -27 115 -26 12 36
c27 83 26 84 -103 112 l-116 25 -9 -25z"/>
<path d="M7218 257 c-53 -12 -99 -24 -102 -27 -4 -5 8 -76 19 -107 2 -8 37 -4
122 14 65 14 119 26 120 27 1 1 -4 26 -10 56 -15 66 -16 66 -149 37z"/>
<path d="M4907 213 c-3 -5 -9 -32 -13 -60 -5 -44 -4 -52 12 -57 36 -11 216
-37 222 -32 6 7 23 109 18 114 -2 2 -44 10 -92 17 -49 8 -101 17 -116 20 -14
4 -29 2 -31 -2z"/>
<path d="M6860 191 l-105 -17 2 -58 c1 -32 4 -60 5 -62 4 -3 185 22 226 31 20
5 23 10 18 35 -3 17 -9 44 -12 60 -3 17 -11 29 -17 29 -7 -1 -59 -9 -117 -18z"/>
<path d="M5265 106 c-4 -31 -6 -59 -4 -61 5 -4 188 -25 223 -25 23 0 24 4 28
59 l3 60 -40 5 c-22 3 -77 8 -122 12 l-81 6 -7 -56z"/>
<path d="M6486 147 l-108 -10 5 -59 c3 -33 7 -61 9 -62 1 -2 57 2 123 8 l120
11 -3 45 c-4 59 -11 80 -25 78 -7 -1 -61 -6 -121 -11z"/>
<path d="M5638 74 c-3 -32 -5 -60 -3 -61 1 -2 56 -6 122 -9 l120 -7 5 59 c3
32 4 61 3 62 -2 2 -57 6 -123 9 l-119 6 -5 -59z"/>
<path d="M6073 123 l-63 -4 0 -59 0 -60 113 0 c61 0 118 4 125 9 9 5 12 25 10
62 l-3 54 -60 1 c-33 0 -88 -1 -122 -3z"/>
</g>
</svg>
